<?xml version="1.0" encoding="utf-8"?>
<!-- Generator: Adobe Illustrator 16.0.0, SVG Export Plug-In . SVG Version: 6.00 Build 0)  -->
<!DOCTYPE svg PUBLIC "-//W3C//DTD SVG 1.0//EN" "http://www.w3.org/TR/2001/REC-SVG-20010904/DTD/svg10.dtd">
<svg version="1.0" id="Layer_1" xmlns="http://www.w3.org/2000/svg" xmlns:xlink="http://www.w3.org/1999/xlink" x="0px" y="0px"
	 width="100px" height="100px" viewBox="0 0 100 100" enable-background="new 0 0 100 100" xml:space="preserve">
<polygon points="62.57,36.667 57.421,36.667 64.088,10.001 69.244,10.001 "/>
<path d="M78.053,10.001l10.976,10.977c1.296,1.295,1.296,3.417,0,4.713L78.053,36.667l-3.535-3.535l9.798-9.798l-9.798-9.798
	L78.053,10.001z"/>
<path d="M48.609,36.667L37.633,25.691c-1.296-1.296-1.296-3.418,0-4.713l10.976-10.977l3.535,3.535l-9.798,9.798l9.798,9.798
	L48.609,36.667z"/>
<path d="M76.666,63.332H49.999c0-7.363-5.97-13.332-13.333-13.332h-20v-6.667H10v46.664h6.667v-4.297l13.531,3.379
	c3.558,0.893,9.437,1.186,13.063,0.658l42.62-6.914c0.817-0.339,1.55-0.827,2.165-1.445c1.207-1.205,1.953-2.871,1.953-4.714
	C89.999,69.302,84.028,63.332,76.666,63.332z M42.304,83.143c-2.77,0.41-7.77,0.15-10.491-0.527l-15.146-3.789v-22.16h20
	c3.675,0,6.667,2.994,6.667,6.666H30v6.667h46.666c3.612,0,6.549,2.896,6.646,6.49L42.304,83.143z"/>
</svg>
